<svg xmlns="http://www.w3.org/2000/svg" width="226" height="65" viewBox="0 0 226 65">
    <g fill="none" fill-rule="evenodd">
        <path fill="#005478" d="M218.8.8l-41 41V17.4L155.8.8h-7.4l24.4 18.4v34.4L225.6.8z"/>
        <g fill="#005478">
            <path d="M99 64h-2L85.6 51v12.8h-3.8V43.6H84l.2.2 11.4 12.8V43.8h3.8V64z"/>
            <path fill-rule="nonzero" d="M113.8 64.2c-5.8 0-10.6-4.6-10.6-10.4 0-5.8 4.6-10.4 10.6-10.4s10.6 4.6 10.6 10.4c0 5.8-4.6 10.4-10.6 10.4zm0-17.2c-3.8 0-6.6 2.8-6.6 6.8s2.8 6.8 6.6 6.8 6.6-2.8 6.6-6.8c0-3.8-2.8-6.8-6.6-6.8z"/>
            <path d="M147.6 64h-2l-5.2-13.6-5.2 13.6h-2v-.2l-7.4-20h4.2v.2l4.6 12.6 5.2-13h2v.2l5 12.8 4.6-13h4.2z"/>
        </g>
        <g fill="#C8472A">
            <path d="M4.6 63.8H.8v-20h14.4v3.4H4.8v4.6h9.6v3.4H4.8v8.6z"/>
            <path fill-rule="nonzero" d="M36.6 63.8h-4.4l-5.2-8h-3v8h-4v-20h8.4c4.2 0 7.2 2.4 7.2 6 0 2.8-1.8 5-4.6 5.8l5.6 8.2zM23.8 52.4h4.6c2 0 3.2-1 3.2-2.6s-1.2-2.6-3.2-2.6h-4.6v5.2z"/>
            <path d="M56 63.8H41.2v-20H56v3.4H45.2v4.6H55v3.4h-9.8v5.2H56zM76.4 63.8H61.6v-20h14.6v3.4H65.4v4.6h9.8v3.4h-9.8v5.2h11v3.4z"/>
        </g>
    </g>
</svg>
