<svg xmlns="http://www.w3.org/2000/svg" width="252" height="65" viewBox="0 0 252 65">
    <g fill="none" fill-rule="evenodd">
        <path fill="#005478" d="M244.8.8l-41 41V17.4L181.8.8h-7.4l24.4 18.4v34.4L251.6.8z"/>
        <g fill="#005478">
            <path d="M125 64h-2l-11.4-13v12.8h-3.8V43.6h2.2l.2.2 11.4 12.8V43.8h3.8V64z"/>
            <path fill-rule="nonzero" d="M139.8 64.2c-5.8 0-10.6-4.6-10.6-10.4 0-5.8 4.6-10.4 10.6-10.4s10.6 4.6 10.6 10.4c0 5.8-4.6 10.4-10.6 10.4zm0-17.2c-3.8 0-6.6 2.8-6.6 6.8s2.8 6.8 6.6 6.8 6.6-2.8 6.6-6.8c0-3.8-2.8-6.8-6.6-6.8z"/>
            <path d="M173.6 64h-2l-5.2-13.6-5.2 13.6h-2v-.2l-7.4-20h4.2v.2l4.6 12.6 5.2-13h2v.2l5 12.8 4.6-13h4.2z"/>
        </g>
        <g fill="#4EB3AE">
            <path fill-rule="nonzero" d="M17.2 63.8h-4.4l-5.2-8h-3v8H.8v-20h8.4c4.2 0 7.2 2.4 7.2 6 0 2.8-1.8 5-4.6 5.8l5.4 8.2zM4.4 52.4H9c2 0 3.2-1 3.2-2.6S11 47.2 9 47.2H4.4v5.2z"/>
            <path d="M35.6 63.8H20.8v-20h14.6v3.4H24.6v4.6h9.8v3.4h-9.8v5.2h11v3.4z"/>
            <path fill-rule="nonzero" d="M58.8 63.8h-4.2l-2-4.4H44l-2 4.4h-4l9.4-20.2h2l9.4 20.2zm-13.2-7.6h5.8l-2.8-6.6-3 6.6z"/>
            <path d="M70.8 64.2c-6 0-10.6-4.6-10.6-10.4 0-5.8 4.6-10.4 10.6-10.4 3.6 0 6.8 1.8 8.6 4.6l.2.2-3 2.2-.2-.4c-1.4-2-3.4-3.2-5.6-3.2-3.8 0-6.6 2.8-6.6 6.8s2.8 6.8 6.6 6.8c2.4 0 4.2-1.2 5.6-3.2l.2-.4 3 2.2-.2.2c-1.6 3.2-4.8 5-8.6 5zM101.2 63.8h-3.8v-8.6h-9.8v8.6h-3.8v-20h3.8v8h9.8v-8h3.8z"/>
        </g>
    </g>
</svg>
