<svg xmlns="http://www.w3.org/2000/svg" width="249" height="65" viewBox="0 0 249 65">
    <g fill="none" fill-rule="evenodd">
        <path fill="#005478" d="M241.8.8l-41 41V17.4L178.8.8h-7.4l24.4 18.4v34.4L248.6.8z"/>
        <g fill="#005478">
            <path d="M122 64h-2l-11.4-13v12.8h-3.8V43.6h2.2l.2.2 11.4 12.8V43.8h3.8V64z"/>
            <path fill-rule="nonzero" d="M136.8 64.2c-5.8 0-10.6-4.6-10.6-10.4 0-5.8 4.6-10.4 10.6-10.4s10.6 4.6 10.6 10.4c0 5.8-4.6 10.4-10.6 10.4zm0-17.2c-3.8 0-6.6 2.8-6.6 6.8s2.8 6.8 6.6 6.8 6.6-2.8 6.6-6.8c0-3.8-2.8-6.8-6.6-6.8z"/>
            <path d="M170.6 64h-2l-5.2-13.6-5.2 13.6h-2v-.2l-7.4-20h4.2v.2l4.6 12.6 5.2-13h2v.2l5 12.8 4.6-13h4.2z"/>
        </g>
        <g fill="#0BA1E2">
            <path d="M8.2 64.2c-3.6 0-6.4-1.6-8-4.4l-.2-.2 2.8-2 .2.4c1.2 2 3 3 5.2 3 2 0 3.2-1 3.2-2.4 0-1.2-1-1.8-2.8-2.6l-2.2-1c-2.2-1-5-2.6-5-5.6 0-3.2 2.8-5.6 6.8-5.6 3.2 0 5.6 1.4 6.8 3.8l.2.2-2.6 2-.2-.4c-1-1.6-2.4-2.2-4-2.2-1.4 0-2.8.6-2.8 2 0 1.2 1 1.6 2.6 2.4l2.2 1c2.6 1.2 5 2.6 5 5.8-.2 3.4-3 5.8-7.2 5.8zM37.2 63.8h-3.8v-8.6h-9.8v8.6h-3.8v-20h3.8v8h9.8v-8h3.8z"/>
            <path fill-rule="nonzero" d="M61.2 63.8H57l-2-4.4h-8.8l-2 4.4H40l9.4-20.2h2l9.8 20.2zm-13.4-7.6h5.8l-2.8-6.6-3 6.6zM80.8 63.8h-4.4l-5.2-8h-3v8h-3.8v-20h8.4c4.2 0 7.2 2.4 7.2 6 0 2.8-1.8 5-4.6 5.8l5.4 8.2zM68.2 52.4h4.6c2 0 3.2-1 3.2-2.6s-1.2-2.6-3.2-2.6h-4.6v5.2z"/>
            <path d="M99.4 63.8H84.6v-20h14.6v3.4H88.4v4.6h9.8v3.4h-9.8v5.2h11v3.4z"/>
        </g>
    </g>
</svg>
